HIERARCHY
ROOT hip
{
  OFFSET 0 90.174 2.4664
  CHANNELS 6 Xposition Yposition Zposition Zrotation Xrotation Yrotation
  JOINT abdomen
  {
    OFFSET 0 -1.186 -1.5018
    CHANNELS 6 Xposition Yposition Zposition Zrotation Xrotation Yrotation
    JOINT abdomen2
    {
      OFFSET 0 9.964 0.2134
      CHANNELS 6 Xposition Yposition Zposition Zrotation Xrotation Yrotation
      JOINT chest
      {
        OFFSET 0 13.134 -3.2573
        CHANNELS 6 Xposition Yposition Zposition Zrotation Xrotation Yrotation
        JOINT neck
        {
          OFFSET 0 20.686 -1.6905
          CHANNELS 6 Xposition Yposition Zposition Zrotation Xrotation Yrotation
          JOINT head
          {
            OFFSET 0 7.238 -0.1237
            CHANNELS 6 Xposition Yposition Zposition Zrotation Xrotation Yrotation
            End Site
            {
              OFFSET 0 0 0
            }
          }
        }
        JOINT lCollar
        {
          OFFSET 1.7069 20.075 5.0056
          CHANNELS 6 Xposition Yposition Zposition Zrotation Xrotation Yrotation
          JOINT lShldr
          {
            OFFSET 13.6458 -0.047 -4.849
            CHANNELS 6 Xposition Yposition Zposition Zrotation Xrotation Yrotation
            JOINT lForeArm
            {
              OFFSET 28.3255 -0.9759 2.2888
              CHANNELS 6 Xposition Yposition Zposition Zrotation Xrotation Yrotation
              JOINT lHand
              {
                OFFSET 22.1583 -0.53 10.8316
                CHANNELS 6 Xposition Yposition Zposition Zrotation Xrotation Yrotation
                JOINT lThumb1
                {
                  OFFSET 0.786 0.112 2.5817
                  CHANNELS 6 Xposition Yposition Zposition Zrotation Xrotation Yrotation
                  JOINT lThumb2
                  {
                    OFFSET 0.3601 -0.878 4.2331
                    CHANNELS 6 Xposition Yposition Zposition Zrotation Xrotation Yrotation
                    JOINT lThumb2_End
                    {
                      OFFSET 1.8127 -1.216 2.2227
                      CHANNELS 6 Xposition Yposition Zposition Zrotation Xrotation Yrotation
                      End Site
                      {
                        OFFSET 0.0181 -0.0122 0.0222
                      }
                    }
                  }
                }
                JOINT lCarpal1
                {
                  OFFSET 0.9571 1.114 1.7695
                  CHANNELS 6 Xposition Yposition Zposition Zrotation Xrotation Yrotation
                  JOINT lIndex1
                  {
                    OFFSET 4.1246 0.487 4.1451
                    CHANNELS 6 Xposition Yposition Zposition Zrotation Xrotation Yrotation
                    JOINT lIndex2
                    {
                      OFFSET 3.4052 -1.454 2.7682
                      CHANNELS 6 Xposition Yposition Zposition Zrotation Xrotation Yrotation
                      JOINT lIndex2_End
                      {
                        OFFSET 1.4531 -1.795 1.2713
                        CHANNELS 6 Xposition Yposition Zposition Zrotation Xrotation Yrotation
                        End Site
                        {
                          OFFSET 0.0145 -0.0179 0.0127
                        }
                      }
                    }
                  }
                  JOINT lMid1
                  {
                    OFFSET 5.6954 0.21 2.1184
                    CHANNELS 6 Xposition Yposition Zposition Zrotation Xrotation Yrotation
                    JOINT lMid2
                    {
                      OFFSET 3.9766 -1.54 2.3863
                      CHANNELS 6 Xposition Yposition Zposition Zrotation Xrotation Yrotation
                      JOINT lMid2_End
                      {
                        OFFSET 1.4042 -1.926 1.125
                        CHANNELS 6 Xposition Yposition Zposition Zrotation Xrotation Yrotation
                        End Site
                        {
                          OFFSET 0.014 -0.0193 0.0113
                        }
                      }
                    }
                  }
                }
                JOINT lCarpal2
                {
                  OFFSET 2.0956 0.66 -0.3894
                  CHANNELS 6 Xposition Yposition Zposition Zrotation Xrotation Yrotation
                  JOINT lRing1
                  {
                    OFFSET 5.0395 -0.09 2.4971
                    CHANNELS 6 Xposition Yposition Zposition Zrotation Xrotation Yrotation
                    JOINT lRing2
                    {
                      OFFSET 3.7921 -1.552 1.4806
                      CHANNELS 6 Xposition Yposition Zposition Zrotation Xrotation Yrotation
                      JOINT lRing2_End
                      {
                        OFFSET 1.4655 -1.808 0.9609
                        CHANNELS 6 Xposition Yposition Zposition Zrotation Xrotation Yrotation
                        End Site
                        {
                          OFFSET 0.0147 -0.0181 0.0096
                        }
                      }
                    }
                  }
                  JOINT lPinky1
                  {
                    OFFSET 4.9141 -1.269 0.3591
                    CHANNELS 6 Xposition Yposition Zposition Zrotation Xrotation Yrotation
                    JOINT lPinky2
                    {
                      OFFSET 3.1477 -1.685 0.8462
                      CHANNELS 6 Xposition Yposition Zposition Zrotation Xrotation Yrotation
                      JOINT lPinky2_End
                      {
                        OFFSET 0.8055 -1.585 0.7955
                        CHANNELS 6 Xposition Yposition Zposition Zrotation Xrotation Yrotation
                        End Site
                        {
                          OFFSET 0.0081 -0.0158 0.008
                        }
                      }
                    }
                  }
                }
              }
            }
          }
        }
        JOINT rCollar
        {
          OFFSET -1.7069 20.075 5.0056
          CHANNELS 6 Xposition Yposition Zposition Zrotation Xrotation Yrotation
          JOINT rShldr
          {
            OFFSET -13.6458 -0.047 -4.849
            CHANNELS 6 Xposition Yposition Zposition Zrotation Xrotation Yrotation
            JOINT rForeArm
            {
              OFFSET -28.3255 -0.9759 2.2888
              CHANNELS 6 Xposition Yposition Zposition Zrotation Xrotation Yrotation
              JOINT rHand
              {
                OFFSET -22.1583 -0.53 10.8316
                CHANNELS 6 Xposition Yposition Zposition Zrotation Xrotation Yrotation
                JOINT rThumb1
                {
                  OFFSET -0.786 0.112 2.5817
                  CHANNELS 6 Xposition Yposition Zposition Zrotation Xrotation Yrotation
                  JOINT rThumb2
                  {
                    OFFSET -0.3601 -0.878 4.2331
                    CHANNELS 6 Xposition Yposition Zposition Zrotation Xrotation Yrotation
                    JOINT rThumb2_End
                    {
                      OFFSET -1.8127 -1.216 2.2227
                      CHANNELS 6 Xposition Yposition Zposition Zrotation Xrotation Yrotation
                      End Site
                      {
                        OFFSET -0.0181 -0.0122 0.0222
                      }
                    }
                  }
                }
                JOINT rCarpal1
                {
                  OFFSET -0.9571 1.114 1.7695
                  CHANNELS 6 Xposition Yposition Zposition Zrotation Xrotation Yrotation
                  JOINT rIndex1
                  {
                    OFFSET -4.1246 0.487 4.1451
                    CHANNELS 6 Xposition Yposition Zposition Zrotation Xrotation Yrotation
                    JOINT rIndex2
                    {
                      OFFSET -3.4052 -1.454 2.7682
                      CHANNELS 6 Xposition Yposition Zposition Zrotation Xrotation Yrotation
                      JOINT rIndex2_End
                      {
                        OFFSET -1.4531 -1.795 1.2713
                        CHANNELS 6 Xposition Yposition Zposition Zrotation Xrotation Yrotation
                        End Site
                        {
                          OFFSET -0.0145 -0.018 0.0127
                        }
                      }
                    }
                  }
                  JOINT rMid1
                  {
                    OFFSET -5.6954 0.21 2.1184
                    CHANNELS 6 Xposition Yposition Zposition Zrotation Xrotation Yrotation
                    JOINT rMid2
                    {
                      OFFSET -3.9766 -1.54 2.3863
                      CHANNELS 6 Xposition Yposition Zposition Zrotation Xrotation Yrotation
                      JOINT rMid2_End
                      {
                        OFFSET -1.4042 -1.926 1.125
                        CHANNELS 6 Xposition Yposition Zposition Zrotation Xrotation Yrotation
                        End Site
                        {
                          OFFSET -0.014 -0.0193 0.0113
                        }
                      }
                    }
                  }
                }
                JOINT rCarpal2
                {
                  OFFSET -2.0956 0.66 -0.3894
                  CHANNELS 6 Xposition Yposition Zposition Zrotation Xrotation Yrotation
                  JOINT rRing1
                  {
                    OFFSET -5.0395 -0.09 2.4971
                    CHANNELS 6 Xposition Yposition Zposition Zrotation Xrotation Yrotation
                    JOINT rRing2
                    {
                      OFFSET -3.7921 -1.552 1.4806
                      CHANNELS 6 Xposition Yposition Zposition Zrotation Xrotation Yrotation
                      JOINT rRing2_End
                      {
                        OFFSET -1.4655 -1.808 0.9609
                        CHANNELS 6 Xposition Yposition Zposition Zrotation Xrotation Yrotation
                        End Site
                        {
                          OFFSET -0.0147 -0.0181 0.0096
                        }
                      }
                    }
                  }
                  JOINT rPinky1
                  {
                    OFFSET -4.9141 -1.269 0.3592
                    CHANNELS 6 Xposition Yposition Zposition Zrotation Xrotation Yrotation
                    JOINT rPinky2
                    {
                      OFFSET -3.1477 -1.685 0.8462
                      CHANNELS 6 Xposition Yposition Zposition Zrotation Xrotation Yrotation
                      JOINT rPinky2_End
                      {
                        OFFSET -0.8055 -1.585 0.7955
                        CHANNELS 6 Xposition Yposition Zposition Zrotation Xrotation Yrotation
                        End Site
                        {
                          OFFSET -0.0081 -0.0158 0.008
                        }
                      }
                    }
                  }
                }
              }
            }
          }
        }
      }
    }
  }
  JOINT lThigh
  {
    OFFSET 8.367 -8.2066 0.5982
    CHANNELS 6 Xposition Yposition Zposition Zrotation Xrotation Yrotation
    JOINT lShin
    {
      OFFSET 2.1923 -43.463 -0.4932
      CHANNELS 6 Xposition Yposition Zposition Zrotation Xrotation Yrotation
      JOINT lFoot
      {
        OFFSET 0.7333 -45.8593 -2.6451
        CHANNELS 6 Xposition Yposition Zposition Zrotation Xrotation Yrotation
        End Site
        {
          OFFSET 2.6618 -4.2699 12.3931
        }
      }
    }
  }
  JOINT rThigh
  {
    OFFSET -8.367 -8.2066 0.5982
    CHANNELS 6 Xposition Yposition Zposition Zrotation Xrotation Yrotation
    JOINT rShin
    {
      OFFSET -2.1923 -43.463 -0.4931
      CHANNELS 6 Xposition Yposition Zposition Zrotation Xrotation Yrotation
      JOINT rFoot
      {
        OFFSET -0.7333 -45.8593 -2.6451
        CHANNELS 6 Xposition Yposition Zposition Zrotation Xrotation Yrotation
        End Site
        {
          OFFSET -2.6618 -4.2699 12.3931
        }
      }
    }
  }
}
MOTION
Frames:	4
Frame Time:	0.0333333
0 90.174 2.4664 0 0 -0 0 -1.186 -1.5018 0 0 -0 0 9.964 0.2134 0 0 -0 0 13.134 -3.2573 0 0 -0 0 20.686 -1.6905 0 0 -0 0 7.238 -0.1237 0 0 -0 1.7069 20.075 5.0056 0 0 -0 13.6458 -0.047 -4.849 1.66051 0.0835086 5.75766 28.3255 -0.9759 2.2888 -0.0175111 0.895433 15.7816 22.1583 -0.53 10.8316 7.95139e-016 -1.98785e-016 -0 0.786 0.112 2.5817 5.46658e-016 -3.97569e-016 -0 0.3601 -0.878 4.2331 5.96354e-016 0 -0 1.8127 -1.216 2.2227 3.97569e-016 1.98785e-016 9.54166e-015 0.9571 1.114 1.7695 1.49089e-016 -3.97569e-016 -0 4.1246 0.487 4.1451 6.4605e-016 0 3.18055e-015 3.4052 -1.454 2.7682 5.96354e-016 0 3.18055e-015 1.4531 -1.795 1.2713 8.94531e-016 -1.98785e-016 6.36111e-015 5.6954 0.21 2.1184 6.4605e-016 0 3.18055e-015 3.9766 -1.54 2.3863 5.96354e-016 0 3.18055e-015 1.4042 -1.926 1.125 8.94531e-016 -1.98785e-016 6.36111e-015 2.0956 0.66 -0.3894 1.49089e-016 -3.97569e-016 -0 5.0395 -0.09 2.4971 6.4605e-016 0 3.18055e-015 3.7921 -1.552 1.4806 5.96354e-016 0 3.18055e-015 1.4655 -1.808 0.9609 8.94531e-016 -1.98785e-016 6.36111e-015 4.9141 -1.269 0.3591 6.4605e-016 0 3.18055e-015 3.1477 -1.685 0.8462 5.96354e-016 0 3.18055e-015 0.8055 -1.585 0.7955 8.94531e-016 -1.98785e-016 6.36111e-015 -1.7069 20.075 5.0056 0 0 -0 -13.6458 -0.047 -4.849 -1.4496 0.0636048 -5.0245 -28.3255 -0.9759 2.2888 -1.74811 1.20616 -16.8394 -22.1583 -0.53 10.8316 -1.19271e-015 1.98785e-016 -3.18055e-015 -0.786 0.112 2.5817 -3.97569e-016 1.98785e-016 -3.18055e-015 -0.3601 -0.878 4.2331 -2.98177e-016 1.98785e-016 -3.18055e-015 -1.8127 -1.216 2.2227 -2.98177e-016 3.97569e-016 -0 -0.9571 1.114 1.7695 4.96962e-016 0 -6.36111e-015 -4.1246 0.487 4.1451 -9.93923e-017 3.97569e-016 -0 -3.4052 -1.454 2.7682 -8.94531e-016 5.96354e-016 -0 -1.4531 -1.795 1.2713 -3.97569e-016 3.97569e-016 -0 -5.6954 0.21 2.1184 -9.93923e-017 3.97569e-016 -0 -3.9766 -1.54 2.3863 -8.94531e-016 5.96354e-016 -0 -1.4042 -1.926 1.125 -3.97569e-016 3.97569e-016 -0 -2.0956 0.66 -0.3894 4.96962e-016 0 -6.36111e-015 -5.0395 -0.09 2.4971 -9.93923e-017 3.97569e-016 -0 -3.7921 -1.552 1.4806 -8.94531e-016 5.96354e-016 -0 -1.4655 -1.808 0.9609 -3.97569e-016 3.97569e-016 -0 -4.9141 -1.269 0.3592 -9.93923e-017 3.97569e-016 -0 -3.1477 -1.685 0.8462 -8.94531e-016 5.96354e-016 -0 -0.8055 -1.585 0.7955 -3.97569e-016 3.97569e-016 -0 8.367 -8.2066 0.5982 -4.66115 -1.03232 0.120763 2.1923 -43.463 -0.4932 0.00990601 1.55097 0.177175 0.7333 -45.8593 -2.6451 4.65196 -0.54114 -0.255042 -8.367 -8.2066 0.5982 4.66115 -1.03222 -0.120763 -2.1923 -43.463 -0.4931 -0.00990459 1.5509 -0.177176 -0.7333 -45.8593 -2.6451 -4.65196 -0.541171 0.255041 
3.62545 64.961 -10.3457 0 16.5408 -0 0 -1.186 -1.5018 0.447146 4.71378 -0.142644 -4.44089e-016 9.964 0.2134 0.910762 9.42628 -0.323996 -8.88178e-016 13.134 -3.2573 0.910762 9.42629 -0.323996 8.88178e-016 20.686 -1.6905 0.0808063 -0.425958 -0.0155514 0 7.238 -0.1237 0.0082567 -0.479893 -0.00395745 1.7069 20.075 5.0056 -5.64285 -4.91757 -7.1954 13.6458 -0.047 -4.849 -20.0096 5.19248 -19.1013 28.3255 -0.9759 2.2888 -2.00508 -8.89244 0.239064 22.1583 -0.53 10.8316 -2.75019 -19.9963 2.77362 0.786 0.112 2.5817 1.42633e-006 -7.94665e-007 -1.3086e-006 0.3601 -0.878 4.2331 6.49121e-006 -1.30564e-006 4.24625e-008 1.8127 -1.216 2.2227 -1.08835e-014 1.59028e-015 -7.95139e-016 0.9571 1.114 1.7695 1.39149e-014 -3.18055e-015 7.95139e-016 4.1246 0.487 4.1451 1.42633e-006 -7.94665e-007 -1.3086e-006 3.4052 -1.454 2.7682 6.49121e-006 -1.30564e-006 4.24625e-008 1.4531 -1.795 1.2713 -8.34896e-015 4.77083e-015 -1.39149e-015 5.6954 0.21 2.1184 1.42633e-006 -7.94665e-007 -1.3086e-006 3.9766 -1.54 2.3863 6.49121e-006 -1.30564e-006 4.24625e-008 1.4042 -1.926 1.125 -8.34896e-015 4.77083e-015 -1.39149e-015 2.0956 0.66 -0.3894 1.39149e-014 -3.18055e-015 7.95139e-016 5.0395 -0.09 2.4971 1.42633e-006 -7.94665e-007 -1.3086e-006 3.7921 -1.552 1.4806 6.49121e-006 -1.30564e-006 4.24625e-008 1.4655 -1.808 0.9609 -8.34896e-015 4.77083e-015 -1.39149e-015 4.9141 -1.269 0.3591 1.42633e-006 -7.94665e-007 -1.3086e-006 3.1477 -1.685 0.8462 6.49121e-006 -1.30564e-006 4.24625e-008 0.8055 -1.585 0.7955 -8.34896e-015 4.77083e-015 -1.39149e-015 -1.7069 20.075 5.0056 0.836914 -6.35086 7.80228 -13.6458 -0.047 -4.849 17.6869 2.82924 24.899 -28.3255 -0.9759 2.2888 0.479938 -9.10917 0.111636 -22.1583 -0.53 10.8316 -1.46775 -20.9091 -4.91168 -0.786 0.112 2.5817 2.98177e-015 7.95139e-016 -0 -0.3601 -0.878 4.2331 -3.97569e-016 1.59028e-015 1.59028e-015 -1.8127 -1.216 2.2227 -1.98785e-016 1.59028e-015 -1.59028e-015 -0.9571 1.114 1.7695 2.98177e-015 7.95139e-016 -0 -4.1246 0.487 4.1451 -1.39149e-015 1.59028e-015 9.54166e-015 -3.4052 -1.454 2.7682 -9.93923e-016 2.38542e-015 -0 -1.4531 -1.795 1.2713 1.13307e-014 7.95139e-016 -0 -5.6954 0.21 2.1184 -1.39149e-015 1.59028e-015 9.54166e-015 -3.9766 -1.54 2.3863 -9.93923e-016 2.38542e-015 -0 -1.4042 -1.926 1.125 1.13307e-014 7.95139e-016 -0 -2.0956 0.66 -0.3894 2.98177e-015 7.95139e-016 -0 -5.0395 -0.09 2.4971 -1.39149e-015 1.59028e-015 9.54166e-015 -3.7921 -1.552 1.4806 -9.93923e-016 2.38542e-015 -0 -1.4655 -1.808 0.9609 1.13307e-014 7.95139e-016 -0 -4.9141 -1.269 0.3592 -1.39149e-015 1.59028e-015 9.54166e-015 -3.1477 -1.685 0.8462 -9.93923e-016 2.38542e-015 -0 -0.8055 -1.585 0.7955 1.13307e-014 7.95139e-016 -0 8.367 -8.2066 0.5982 12.5587 -26.4687 0.0245139 2.1923 -43.463 -0.4932 -0.736224 49.4776 -0.0665195 0.7333 -45.8593 -2.6451 2.57124 33.5478 -12.4633 -8.367 -8.2066 0.5982 -3.7723 -30.0668 -1.72043 -2.1923 -43.463 -0.4931 0.19613 56.9531 -0.0563393 -0.7333 -45.8593 -2.6451 -6.6225 29.6164 5.46208 
6.64697 41.902 -22.1462 0 31.1665 -0 0 -1.186 -1.5018 0.861156 8.878 -0.415223 0 9.964 0.2134 1.82178 17.7483 -0.985468 0 13.134 -3.2573 1.82179 17.7483 -0.985469 0 20.686 -1.6905 0.161712 -0.850447 -0.0291462 -8.88178e-016 7.238 -0.1237 0.0165353 -0.959497 -0.00765428 1.7069 20.075 5.0056 -11.6532 -9.0813 -13.6912 13.6458 -0.047 -4.849 -35.6117 7.11283 -41.3742 28.3255 -0.9759 2.2888 -7.97057 -15.4212 -14.4856 22.1583 -0.53 10.8316 -4.38504 -38.1234 3.46954 0.786 0.112 2.5817 1.19271e-015 -7.95139e-016 1.59028e-015 0.3601 -0.878 4.2331 -2.20695e-032 7.95139e-016 1.59028e-015 1.8127 -1.216 2.2227 3.97569e-016 0 1.59028e-015 0.9571 1.114 1.7695 1.19271e-015 -7.95139e-016 1.59028e-015 4.1246 0.487 4.1451 5.96354e-016 7.95139e-016 7.95139e-015 3.4052 -1.454 2.7682 1.19271e-015 0 1.59028e-015 1.4531 -1.795 1.2713 1.59028e-015 0 -0 5.6954 0.21 2.1184 5.96354e-016 7.95139e-016 7.95139e-015 3.9766 -1.54 2.3863 1.19271e-015 0 1.59028e-015 1.4042 -1.926 1.125 1.59028e-015 0 -0 2.0956 0.66 -0.3894 1.19271e-015 -7.95139e-016 1.59028e-015 5.0395 -0.09 2.4971 5.96354e-016 7.95139e-016 7.95139e-015 3.7921 -1.552 1.4806 1.19271e-015 0 1.59028e-015 1.4655 -1.808 0.9609 1.59028e-015 0 -0 4.9141 -1.269 0.3591 5.96354e-016 7.95139e-016 7.95139e-015 3.1477 -1.685 0.8462 1.19271e-015 0 1.59028e-015 0.8055 -1.585 0.7955 1.59028e-015 0 -0 -1.7069 20.075 5.0056 3.01366 -11.6859 14.9261 -13.6458 -0.047 -4.849 32.3031 3.02481 51.4205 -28.3255 -0.9759 2.2888 7.19328 -15.74 16.2256 -22.1583 -0.53 10.8316 -4.96059 -40.0497 -8.39021 -0.786 0.112 2.5817 -9.44227e-016 7.95139e-016 7.95139e-016 -0.3601 -0.878 4.2331 -1.49089e-016 7.95139e-016 7.95139e-016 -1.8127 -1.216 2.2227 -9.93923e-017 0 1.59028e-015 -0.9571 1.114 1.7695 -9.44227e-016 0 7.95139e-016 -4.1246 0.487 4.1451 -2.48481e-016 0 7.15625e-015 -3.4052 -1.454 2.7682 -1.98785e-016 0 7.95139e-016 -1.4531 -1.795 1.2713 -1.98785e-016 -7.95139e-016 -7.95139e-016 -5.6954 0.21 2.1184 -2.48481e-016 0 7.15625e-015 -3.9766 -1.54 2.3863 -1.98785e-016 0 7.95139e-016 -1.4042 -1.926 1.125 -1.98785e-016 -7.95139e-016 -7.95139e-016 -2.0956 0.66 -0.3894 -9.44227e-016 0 7.95139e-016 -5.0395 -0.09 2.4971 -2.48481e-016 0 7.15625e-015 -3.7921 -1.552 1.4806 -1.98785e-016 0 7.95139e-016 -1.4655 -1.808 0.9609 -1.98785e-016 -7.95139e-016 -7.95139e-016 -4.9141 -1.269 0.3592 -2.48481e-016 0 7.15625e-015 -3.1477 -1.685 0.8462 -1.98785e-016 0 7.95139e-016 -0.8055 -1.585 0.7955 -1.98785e-016 -7.95139e-016 -7.95139e-016 8.367 -8.2066 0.5982 25.4608 -50.5813 -0.426468 2.1923 -43.463 -0.4932 131.379 85.1777 -130.817 0.7333 -45.8593 -2.6451 20.6695 59.6236 -37.6112 -8.367 -8.2066 0.5982 -10.061 -57.5485 -4.73418 -2.1923 -43.463 -0.4931 -166.108 72.3241 163.325 -0.7333 -45.8593 -2.6451 -14.9634 56.3312 13.9495 
7.60751 33.4328 -26.6053 0 36.4959 -0 0 -1.186 -1.5018 1.01619 10.4009 -0.549529 0 9.964 0.2134 2.19138 20.7894 -1.32382 8.88178e-016 13.134 -3.2573 2.19138 20.7894 -1.32382 0 20.686 -1.6905 0.243872 -1.27419 -0.0333529 8.88178e-016 7.238 -0.1237 0.0251843 -1.43775 -0.0100855 1.7069 20.075 5.0056 -14.027 -10.5358 -16.157 13.6458 -0.047 -4.849 -40.4935 6.75111 -49.6171 28.3255 -0.9759 2.2888 -10.9913 -17.0068 -20.1023 22.1583 -0.53 10.8316 -5.14742 -44.7684 3.03139 0.786 0.112 2.5817 6.14223e-008 -2.57687e-006 2.11249e-006 0.3601 -0.878 4.2331 -7.95139e-016 -6.36111e-015 9.54166e-015 1.8127 -1.216 2.2227 6.14223e-008 -2.57687e-006 2.11249e-006 0.9571 1.114 1.7695 7.95139e-016 3.18055e-015 -3.18055e-015 4.1246 0.487 4.1451 6.14223e-008 -2.57687e-006 2.11249e-006 3.4052 -1.454 2.7682 -7.95139e-016 -3.18055e-015 1.43125e-014 1.4531 -1.795 1.2713 6.14223e-008 -2.57687e-006 2.11249e-006 5.6954 0.21 2.1184 6.14223e-008 -2.57687e-006 2.11249e-006 3.9766 -1.54 2.3863 -7.95139e-016 -3.18055e-015 1.43125e-014 1.4042 -1.926 1.125 6.14223e-008 -2.57687e-006 2.11249e-006 2.0956 0.66 -0.3894 7.95139e-016 3.18055e-015 -3.18055e-015 5.0395 -0.09 2.4971 6.14223e-008 -2.57687e-006 2.11249e-006 3.7921 -1.552 1.4806 -7.95139e-016 -3.18055e-015 1.43125e-014 1.4655 -1.808 0.9609 6.14223e-008 -2.57687e-006 2.11249e-006 4.9141 -1.269 0.3591 6.14223e-008 -2.57687e-006 2.11249e-006 3.1477 -1.685 0.8462 -7.95139e-016 -3.18055e-015 1.43125e-014 0.8055 -1.585 0.7955 6.14223e-008 -2.57687e-006 2.11249e-006 -1.7069 20.075 5.0056 4.05873 -13.5366 17.6086 -13.6458 -0.047 -4.849 37.1544 2.20423 61.1671 -28.3255 -0.9759 2.2888 10.5678 -17.2077 22.3826 -22.1583 -0.53 10.8316 -6.9446 -47.1137 -9.7724 -0.786 0.112 2.5817 1.88845e-015 0 -2.18663e-015 -0.3601 -0.878 4.2331 3.37934e-015 -3.18055e-015 -9.93923e-016 -1.8127 -1.216 2.2227 3.47873e-015 -6.36111e-015 -1.98785e-016 -0.9571 1.114 1.7695 2.08724e-015 0 -1.39149e-015 -4.1246 0.487 4.1451 5.86415e-015 -6.36111e-015 4.57205e-015 -3.4052 -1.454 2.7682 9.93923e-016 -3.18055e-015 -1.39149e-015 -1.4531 -1.795 1.2713 -7.95139e-016 0 -1.98785e-016 -5.6954 0.21 2.1184 5.86415e-015 -6.36111e-015 4.57205e-015 -3.9766 -1.54 2.3863 9.93923e-016 -3.18055e-015 -1.39149e-015 -1.4042 -1.926 1.125 -7.95139e-016 0 -1.98785e-016 -2.0956 0.66 -0.3894 2.08724e-015 0 -1.39149e-015 -5.0395 -0.09 2.4971 5.86415e-015 -6.36111e-015 4.57205e-015 -3.7921 -1.552 1.4806 9.93923e-016 -3.18055e-015 -1.39149e-015 -1.4655 -1.808 0.9609 -7.95139e-016 0 -1.98785e-016 -4.9141 -1.269 0.3592 5.86415e-015 -6.36111e-015 4.57205e-015 -3.1477 -1.685 0.8462 9.93923e-016 -3.18055e-015 -1.39149e-015 -0.8055 -1.585 0.7955 -7.95139e-016 0 -1.98785e-016 8.367 -8.2066 0.5982 28.5462 -59.7606 -1.15964 2.1923 -43.463 -0.4932 162.67 70.1176 -161.032 0.7333 -45.8593 -2.6451 38.7826 66.3334 -57.4438 -8.367 -8.2066 0.5982 -10.9186 -68.6289 -7.07011 -2.1923 -43.463 -0.4931 -169.396 53.7929 163.626 -0.7333 -45.8593 -2.6451 -21.6339 66.8483 20.0068 
